<svg width="64" height="64" xmlns="http://www.w3.org/2000/svg">

 <g>
  <title>background</title>
  <rect fill="none" id="canvas_background" height="66" width="66" y="-1" x="-1"/>
 </g>
 <g>
  <title>Layer 1</title>
  <g stroke="null" id="layer1">
   <path stroke="null" fill="black" fill-rule="nonzero" stroke-linecap="round" marker-start="none" marker-mid="none" marker-end="none" stroke-miterlimit="4" stroke-dashoffset="0" id="path1882" d="m29.3034,16.884568l0.019519,5.646519l-5.883085,4.779869l0,-2.294231l-1.964585,0l0,3.958412l-6.02261,5.064109l0.00644,-1.932471l-1.791658,0l0,3.432041l-7.411721,6.361638l-0.661951,3.04391l16.280265,-8.868544l7.411721,-1.985852l0.132922,13.103433l1.454165,6.220741l-7.733392,5.837927l0,2.501589l8.873861,-1.884831l8.847277,1.879515l0,-2.501589l-7.733392,-5.837927l1.454165,-6.220741l0.132922,-13.103433l7.411721,1.985852l16.280265,8.868544l-0.661951,-3.04391l-7.411721,-6.361638l0,-3.4347l-1.70961,0l0.004929,2.020744l-6.103147,-5.149724l0,-3.958412l-1.964585,0l0,2.294231l-6.034289,-4.779869l0.000618,-5.646519c0,-2.298096 0.08431,-9.46184 -2.502569,-12.582381c-2.500752,3.561849 -2.584888,8.250947 -2.720526,12.587698z"/>
  </g>
 </g>
</svg>